<svg xmlns="http://www.w3.org/2000/svg" width="192" height="192" viewBox="0 0 192 192" role="img" aria-label="Digital Catalyst app logo">
  <defs>
    <linearGradient id="dc-bg-192" x1="28" y1="18" x2="164" y2="174" gradientUnits="userSpaceOnUse">
      <stop stop-color="#38bdf8"/>
      <stop offset="0.46" stop-color="#2563eb"/>
      <stop offset="1" stop-color="#4f46e5"/>
    </linearGradient>
    <linearGradient id="dc-page-192" x1="55" y1="64" x2="137" y2="134" gradientUnits="userSpaceOnUse">
      <stop stop-color="#ffffff"/>
      <stop offset="1" stop-color="#dbeafe"/>
    </linearGradient>
  </defs>
  <rect x="8" y="8" width="176" height="176" rx="44" fill="url(#dc-bg-192)"/>
  <circle cx="142" cy="48" r="10" fill="#facc15"/>
  <path d="M142 25v13M142 58v13M119 48h13M152 48h13" stroke="#fef3c7" stroke-width="5" stroke-linecap="round"/>
  <path d="M48 65c0-8 6-14 14-14h25c8 0 15 4 19 10 4-6 11-10 19-10h25c8 0 14 6 14 14v75c0 3-3 6-6 5l-38-8c-5-1-10 0-14 4-4-4-9-5-14-4l-38 8c-3 1-6-2-6-5V65z" fill="#0f172a" opacity=".22"/>
  <path d="M42 61c0-8 6-14 14-14h27c9 0 17 5 21 13v76c-5-7-12-10-21-10H56c-8 0-14-6-14-14V61z" fill="url(#dc-page-192)"/>
  <path d="M150 47c8 0 14 6 14 14v51c0 8-6 14-14 14h-27c-9 0-16 3-21 10V60c4-8 12-13 21-13h27z" fill="#eff6ff"/>
  <path d="M70 78h20M70 94h20M122 78h25M122 94h25" stroke="#2563eb" stroke-width="6" stroke-linecap="round" opacity=".72"/>
</svg>
