{"asset":{"version":"2.0","generator":"digitalcatalyst warehouse bake","copyright":"Abandoned Warehouse by Arsen Ismailov, CC BY 4.0. https://sketchfab.com/3d-models/abandoned-warehouse-698a34300af34095ac6593f348585daa"},"scene":0,"scenes":[{"nodes":[0,1,2,3,4,5,6,7]}],"nodes":[{"name":"warehouse-wall","mesh":0},{"name":"warehouse-roof","mesh":1},{"name":"warehouse-concrete","mesh":2},{"name":"warehouse-steps","mesh":3},{"name":"warehouse-metal","mesh":4},{"name":"warehouse-window","mesh":5},{"name":"warehouse-door","mesh":6},{"name":"warehouse-impostor","mesh":7}],"meshes":[{"name":"warehouse-wall","primitives":[{"attributes":{"POSITION":0,"NORMAL":1,"TEXCOORD_0":2},"indices":3,"material":0}]},{"name":"warehouse-roof","primitives":[{"attributes":{"POSITION":4,"NORMAL":5,"TEXCOORD_0":6},"indices":7,"material":1}]},{"name":"warehouse-concrete","primitives":[{"attributes":{"POSITION":8,"NORMAL":9,"TEXCOORD_0":10},"indices":11,"material":2}]},{"name":"warehouse-steps","primitives":[{"attributes":{"POSITION":12,"NORMAL":13,"TEXCOORD_0":14},"indices":15,"material":2}]},{"name":"warehouse-metal","primitives":[{"attributes":{"POSITION":16,"NORMAL":17,"TEXCOORD_0":18},"indices":19,"material":3}]},{"name":"warehouse-window","primitives":[{"attributes":{"POSITION":20,"NORMAL":21,"TEXCOORD_0":22},"indices":23,"material":4}]},{"name":"warehouse-door","primitives":[{"attributes":{"POSITION":24,"NORMAL":25,"TEXCOORD_0":26},"indices":27,"material":5}]},{"name":"warehouse-impostor","primitives":[{"attributes":{"POSITION":28,"NORMAL":29,"COLOR_0":30},"indices":31}]}],"materials":[{"name":"abandoned_warehouse_wall","doubleSided":true,"pbrMetallicRoughness":{"baseColorTexture":{"index":0},"metallicFactor":0,"roughnessFactor":0.9}},{"name":"abandoned_warehouse_roof","doubleSided":true,"pbrMetallicRoughness":{"baseColorTexture":{"index":1},"metallicFactor":0,"roughnessFactor":0.86}},{"name":"abandoned_warehouse_concrete","doubleSided":true,"pbrMetallicRoughness":{"baseColorTexture":{"index":2},"metallicFactor":0,"roughnessFactor":0.94}},{"name":"abandoned_warehouse_metal","doubleSided":true,"pbrMetallicRoughness":{"baseColorTexture":{"index":3},"metallicFactor":0,"roughnessFactor":0.72}},{"name":"abandoned_warehouse_window","doubleSided":true,"pbrMetallicRoughness":{"baseColorTexture":{"index":4},"metallicFactor":0,"roughnessFactor":0.45}},{"name":"abandoned_warehouse_door","doubleSided":true,"pbrMetallicRoughness":{"baseColorTexture":{"index":5},"metallicFactor":0,"roughnessFactor":0.7}}],"textures":[{"sampler":0,"source":0},{"sampler":0,"source":1},{"sampler":0,"source":2},{"sampler":0,"source":3},{"sampler":0,"source":4},{"sampler":0,"source":5}],"images":[{"uri":"textures/abandoned_warehouse_wall.jpg","mimeType":"image/jpeg"},{"uri":"textures/abandoned_warehouse_roof.jpg","mimeType":"image/jpeg"},{"uri":"textures/abandoned_warehouse_concrete.jpg","mimeType":"image/jpeg"},{"uri":"textures/abandoned_warehouse_metal.jpg","mimeType":"image/jpeg"},{"uri":"textures/abandoned_warehouse_window.jpg","mimeType":"image/jpeg"},{"uri":"textures/abandoned_warehouse_door.jpg","mimeType":"image/jpeg"}],"samplers":[{"magFilter":9729,"minFilter":9987,"wrapS":10497,"wrapT":10497}],"accessors":[{"bufferView":0,"componentType":5126,"count":586,"type":"VEC3","min":[-11.707423405300704,0.0038106556815529356,-12.921244825082768],"max":[12.790028250512373,5.307799650665142,14.775505120044345]},{"bufferView":1,"componentType":5126,"count":586,"type":"VEC3"},{"bufferView":2,"componentType":5126,"count":586,"type":"VEC2"},{"bufferView":3,"componentType":5125,"count":1140,"type":"SCALAR"},{"bufferView":4,"componentType":5126,"count":476,"type":"VEC3","min":[-11.787963072572925,4.472090440423273,-12.998435704851437],"max":[12.853598365301728,5.39747896173599,14.848521282007919]},{"bufferView":5,"componentType":5126,"count":476,"type":"VEC3"},{"bufferView":6,"componentType":5126,"count":476,"type":"VEC2"},{"bufferView":7,"componentType":5125,"count":1167,"type":"SCALAR"},{"bufferView":8,"componentType":5126,"count":222,"type":"VEC3","min":[-11.904841579505431,0.0026982781905750034,-13.145343166065386],"max":[12.985348010093222,2.9609810007752864,15]},{"bufferView":9,"componentType":5126,"count":222,"type":"VEC3"},{"bufferView":10,"componentType":5126,"count":222,"type":"VEC2"},{"bufferView":11,"componentType":5125,"count":348,"type":"SCALAR"},{"bufferView":12,"componentType":5126,"count":184,"type":"VEC3","min":[-12.985348010093224,0.002810053315841522,-15],"max":[4.759163530684058,0.6389486824932988,10.106945240094099]},{"bufferView":13,"componentType":5126,"count":184,"type":"VEC3"},{"bufferView":14,"componentType":5126,"count":184,"type":"VEC2"},{"bufferView":15,"componentType":5125,"count":966,"type":"SCALAR"},{"bufferView":16,"componentType":5126,"count":12204,"type":"VEC3","min":[-12.883341039460237,0,-14.926753413642569],"max":[12.84681749809458,5.326575785687208,14.821783069487207]},{"bufferView":17,"componentType":5126,"count":12204,"type":"VEC3"},{"bufferView":18,"componentType":5126,"count":12204,"type":"VEC2"},{"bufferView":19,"componentType":5125,"count":7053,"type":"SCALAR"},{"bufferView":20,"componentType":5126,"count":180,"type":"VEC3","min":[0.6605493335948023,3.1031576222751673,-12.882984763144856],"max":[12.080796664763648,5.058676503729542,12.88888172261064]},{"bufferView":21,"componentType":5126,"count":180,"type":"VEC3"},{"bufferView":22,"componentType":5126,"count":180,"type":"VEC2"},{"bufferView":23,"componentType":5125,"count":270,"type":"SCALAR"},{"bufferView":24,"componentType":5126,"count":36,"type":"VEC3","min":[-11.637210713959284,0.06656281336236133,-12.873310602590788],"max":[5.66290550940891,4.156066011601397,13.552301258056115]},{"bufferView":25,"componentType":5126,"count":36,"type":"VEC3"},{"bufferView":26,"componentType":5126,"count":36,"type":"VEC2"},{"bufferView":27,"componentType":5125,"count":54,"type":"SCALAR"},{"bufferView":28,"componentType":5126,"count":103,"type":"VEC3","min":[-11.707423405300704,0.0038106556815529356,-12.921244825082768],"max":[12.790028250512373,5.397422750124395,14.848521146450166]},{"bufferView":29,"componentType":5126,"count":103,"type":"VEC3"},{"bufferView":30,"componentType":5126,"count":103,"type":"VEC3"},{"bufferView":31,"componentType":5125,"count":708,"type":"SCALAR"}],"bufferViews":[{"buffer":0,"byteOffset":0,"byteLength":7032},{"buffer":0,"byteOffset":7032,"byteLength":7032},{"buffer":0,"byteOffset":14064,"byteLength":4688},{"buffer":0,"byteOffset":18752,"byteLength":4560},{"buffer":0,"byteOffset":23312,"byteLength":5712},{"buffer":0,"byteOffset":29024,"byteLength":5712},{"buffer":0,"byteOffset":34736,"byteLength":3808},{"buffer":0,"byteOffset":38544,"byteLength":4668},{"buffer":0,"byteOffset":43212,"byteLength":2664},{"buffer":0,"byteOffset":45876,"byteLength":2664},{"buffer":0,"byteOffset":48540,"byteLength":1776},{"buffer":0,"byteOffset":50316,"byteLength":1392},{"buffer":0,"byteOffset":51708,"byteLength":2208},{"buffer":0,"byteOffset":53916,"byteLength":2208},{"buffer":0,"byteOffset":56124,"byteLength":1472},{"buffer":0,"byteOffset":57596,"byteLength":3864},{"buffer":0,"byteOffset":61460,"byteLength":146448},{"buffer":0,"byteOffset":207908,"byteLength":146448},{"buffer":0,"byteOffset":354356,"byteLength":97632},{"buffer":0,"byteOffset":451988,"byteLength":28212},{"buffer":0,"byteOffset":480200,"byteLength":2160},{"buffer":0,"byteOffset":482360,"byteLength":2160},{"buffer":0,"byteOffset":484520,"byteLength":1440},{"buffer":0,"byteOffset":485960,"byteLength":1080},{"buffer":0,"byteOffset":487040,"byteLength":432},{"buffer":0,"byteOffset":487472,"byteLength":432},{"buffer":0,"byteOffset":487904,"byteLength":288},{"buffer":0,"byteOffset":488192,"byteLength":216},{"buffer":0,"byteOffset":488408,"byteLength":1236},{"buffer":0,"byteOffset":489644,"byteLength":1236},{"buffer":0,"byteOffset":490880,"byteLength":1236},{"buffer":0,"byteOffset":492116,"byteLength":2832}],"buffers":[{"uri":"abandoned_warehouse.bin","byteLength":494948}]}