{"asset": {"generator": "Khronos glTF Blender I/O v4.4.56", "version": "2.0"}, "extensionsUsed": ["KHR_materials_specular", "KHR_materials_ior"], "scene": 0, "scenes": [{"name": "Scene", "nodes": [0, 1, 2, 3, 4, 5, 6, 7, 8, 9, 10, 11]}], "nodes": [{"mesh": 0, "name": "moss_01_c_LOD0", "translation": [0.03950319066643715, -7.909760461188853e-05, 0.00013212340127211064]}, {"mesh": 1, "name": "moss_01_d_LOD0", "translation": [0.05397823825478554, -7.909760461188853e-05, 0.00013212340127211064]}, {"mesh": 2, "name": "moss_01_e_LOD0", "translation": [0.08029040694236755, 0, 0]}, {"mesh": 3, "name": "moss_01_f_LOD0", "translation": [0.09703865647315979, 0, 0]}, {"mesh": 4, "name": "moss_01_b_LOD0", "translation": [0.01784023828804493, 0, 0]}, {"mesh": 5, "name": "moss_01_g_LOD0", "translation": [0.11098906397819519, 0, 0]}, {"mesh": 6, "name": "moss_01_a_LOD0", "translation": [-1.3512879377231002e-05, 0, 0]}, {"mesh": 7, "name": "moss_01_h_LOD0", "translation": [0.1563161313533783, 0, 0]}, {"mesh": 8, "name": "moss_01_i_LOD0", "translation": [0.17438122630119324, 0, 0]}, {"mesh": 9, "name": "moss_01_j_LOD0", "translation": [0.20222729444503784, -7.900998753029853e-05, 0.00013214698992669582]}, {"mesh": 10, "name": "moss_01_tall_a_LOD0", "translation": [0.12331497669219971, 0, 0]}, {"mesh": 11, "name": "moss_01_tall_b_LOD0", "translation": [0.14413690567016602, 0, 0]}], "materials": [{"alphaMode": "BLEND", "doubleSided": true, "extensions": {"KHR_materials_specular": {"specularFactor": 0}, "KHR_materials_ior": {"ior": 1.4500000476837158}}, "name": "moss_01", "normalTexture": {"index": 0, "scale": 2}, "pbrMetallicRoughness": {"baseColorTexture": {"index": 1}, "metallicFactor": 0, "metallicRoughnessTexture": {"index": 2}}}], "meshes": [{"name": "Plane.003", "primitives": [{"attributes": {"POSITION": 0, "NORMAL": 1, "TEXCOORD_0": 2}, "indices": 3, "material": 0}]}, {"name": "Plane.004", "primitives": [{"attributes": {"POSITION": 4, "NORMAL": 5, "TEXCOORD_0": 6}, "indices": 7, "material": 0}]}, {"name": "Plane.005", "primitives": [{"attributes": {"POSITION": 8, "NORMAL": 9, "TEXCOORD_0": 10}, "indices": 11, "material": 0}]}, {"name": "Plane.006", "primitives": [{"attributes": {"POSITION": 12, "NORMAL": 13, "TEXCOORD_0": 14}, "indices": 11, "material": 0}]}, {"name": "Plane.007", "primitives": [{"attributes": {"POSITION": 15, "NORMAL": 16, "TEXCOORD_0": 17}, "indices": 7, "material": 0}]}, {"name": "Plane.008", "primitives": [{"attributes": {"POSITION": 18, "NORMAL": 19, "TEXCOORD_0": 20}, "indices": 7, "material": 0}]}, {"name": "Plane.009", "primitives": [{"attributes": {"POSITION": 21, "NORMAL": 22, "TEXCOORD_0": 23}, "indices": 24, "material": 0}]}, {"name": "Plane.010", "primitives": [{"attributes": {"POSITION": 25, "NORMAL": 26, "TEXCOORD_0": 27}, "indices": 28, "material": 0}]}, {"name": "Plane.011", "primitives": [{"attributes": {"POSITION": 29, "NORMAL": 30, "TEXCOORD_0": 31}, "indices": 28, "material": 0}]}, {"name": "Plane.032", "primitives": [{"attributes": {"POSITION": 32, "NORMAL": 33, "TEXCOORD_0": 34}, "indices": 35, "material": 0}]}, {"name": "Plane.035", "primitives": [{"attributes": {"POSITION": 36, "NORMAL": 37, "TEXCOORD_0": 38}, "indices": 39, "material": 0}]}, {"name": "Plane.040", "primitives": [{"attributes": {"POSITION": 40, "NORMAL": 41, "TEXCOORD_0": 42}, "indices": 39, "material": 0}]}], "textures": [{"sampler": 0, "source": 0}, {"sampler": 0, "source": 1}, {"sampler": 0, "source": 2}], "images": [{"mimeType": "image/jpeg", "name": "moss_01_nor_gl", "uri": "textures/moss_01_nor_gl_1k.jpg"}, {"mimeType": "image/jpeg", "name": "moss_01_diff-moss_01_alpha", "uri": "textures/moss_01_diff_1k.jpg"}, {"mimeType": "image/jpeg", "name": "moss_01_rough", "uri": "textures/moss_01_arm_1k.jpg"}], "accessors": [{"bufferView": 0, "componentType": 5126, "count": 24, "max": [0.00439482694491744, 0.027747370302677155, 0.0048323022201657295], "min": [-0.013785145245492458, 8.761583103478188e-08, -0.009170814417302608], "type": "VEC3"}, {"bufferView": 1, "componentType": 5126, "count": 24, "type": "VEC3"}, {"bufferView": 2, "componentType": 5126, "count": 24, "type": "VEC2"}, {"bufferView": 3, "componentType": 5123, "count": 72, "type": "SCALAR"}, {"bufferView": 4, "componentType": 5126, "count": 16, "max": [0.0066835153847932816, 0.02325499802827835, 0.008718956261873245], "min": [-0.0068742805160582066, -0.003464906709268689, -0.006917863618582487], "type": "VEC3"}, {"bufferView": 5, "componentType": 5126, "count": 16, "type": "VEC3"}, {"bufferView": 6, "componentType": 5126, "count": 16, "type": "VEC2"}, {"bufferView": 7, "componentType": 5123, "count": 48, "type": "SCALAR"}, {"bufferView": 8, "componentType": 5126, "count": 19, "max": [0.004220020025968552, 0.02159985899925232, 0.0080511923879385], "min": [-0.006936457473784685, 0, -0.004655787721276283], "type": "VEC3"}, {"bufferView": 9, "componentType": 5126, "count": 19, "type": "VEC3"}, {"bufferView": 10, "componentType": 5126, "count": 19, "type": "VEC2"}, {"bufferView": 11, "componentType": 5123, "count": 60, "type": "SCALAR"}, {"bufferView": 12, "componentType": 5126, "count": 19, "max": [0.005992166232317686, 0.03005094639956951, 0.006334646139293909], "min": [-0.006777194328606129, 0, -0.006678146775811911], "type": "VEC3"}, {"bufferView": 13, "componentType": 5126, "count": 19, "type": "VEC3"}, {"bufferView": 14, "componentType": 5126, "count": 19, "type": "VEC2"}, {"bufferView": 15, "componentType": 5126, "count": 16, "max": [0.005255779717117548, 0.014765322208404541, 0.004435925744473934], "min": [-0.00424335477873683, 0, -0.005079510621726513], "type": "VEC3"}, {"bufferView": 16, "componentType": 5126, "count": 16, "type": "VEC3"}, {"bufferView": 17, "componentType": 5126, "count": 16, "type": "VEC2"}, {"bufferView": 18, "componentType": 5126, "count": 16, "max": [0.006538619752973318, 0.021551793441176414, 0.005561012774705887], "min": [-0.006349573843181133, -4.737362147011481e-08, -0.003914110362529755], "type": "VEC3"}, {"bufferView": 19, "componentType": 5126, "count": 16, "type": "VEC3"}, {"bufferView": 20, "componentType": 5126, "count": 16, "type": "VEC2"}, {"bufferView": 21, "componentType": 5126, "count": 24, "max": [0.005321514327079058, 0.025953780859708786, 0.005851235240697861], "min": [-0.00888559315353632, 0, -0.010091456584632397], "type": "VEC3"}, {"bufferView": 22, "componentType": 5126, "count": 24, "type": "VEC3"}, {"bufferView": 23, "componentType": 5126, "count": 24, "type": "VEC2"}, {"bufferView": 24, "componentType": 5123, "count": 72, "type": "SCALAR"}, {"bufferView": 25, "componentType": 5126, "count": 7, "max": [0.004918911028653383, 0.017582479864358902, -1.9397636275009233e-10], "min": [-0.005758685525506735, 3.8795272550018467e-10, -0.005749505944550037], "type": "VEC3"}, {"bufferView": 26, "componentType": 5126, "count": 7, "type": "VEC3"}, {"bufferView": 27, "componentType": 5126, "count": 7, "type": "VEC2"}, {"bufferView": 28, "componentType": 5123, "count": 18, "type": "SCALAR"}, {"bufferView": 29, "componentType": 5126, "count": 7, "max": [0.01592414826154709, 0.014728115871548653, 0.006876013241708279], "min": [-0.0005590105429291725, 4.2302639169378153e-10, -0.005873300600796938], "type": "VEC3"}, {"bufferView": 30, "componentType": 5126, "count": 7, "type": "VEC3"}, {"bufferView": 31, "componentType": 5126, "count": 7, "type": "VEC2"}, {"bufferView": 32, "componentType": 5126, "count": 8, "max": [0.004133597016334534, 0.006863008253276348, 0.019197257235646248], "min": [-0.01247353944927454, -0.002142798388376832, 0.00040520812035538256], "type": "VEC3"}, {"bufferView": 33, "componentType": 5126, "count": 8, "type": "VEC3"}, {"bufferView": 34, "componentType": 5126, "count": 8, "type": "VEC2"}, {"bufferView": 35, "componentType": 5123, "count": 24, "type": "SCALAR"}, {"bufferView": 36, "componentType": 5126, "count": 24, "max": [0.01813471131026745, 0.0331893153488636, 0.00380225689150393], "min": [-0.0032881502993404865, -0.0004045230452902615, -0.007507700473070145], "type": "VEC3"}, {"bufferView": 37, "componentType": 5126, "count": 24, "type": "VEC3"}, {"bufferView": 38, "componentType": 5126, "count": 24, "type": "VEC2"}, {"bufferView": 39, "componentType": 5123, "count": 72, "type": "SCALAR"}, {"bufferView": 40, "componentType": 5126, "count": 24, "max": [0.005792519543319941, 0.036823973059654236, 0.006062100175768137], "min": [-0.011904767714440823, -0.0004045230452902615, -0.005704944953322411], "type": "VEC3"}, {"bufferView": 41, "componentType": 5126, "count": 24, "type": "VEC3"}, {"bufferView": 42, "componentType": 5126, "count": 24, "type": "VEC2"}], "bufferViews": [{"buffer": 0, "byteLength": 288, "byteOffset": 0, "target": 34962}, {"buffer": 0, "byteLength": 288, "byteOffset": 288, "target": 34962}, {"buffer": 0, "byteLength": 192, "byteOffset": 576, "target": 34962}, {"buffer": 0, "byteLength": 144, "byteOffset": 768, "target": 34963}, {"buffer": 0, "byteLength": 192, "byteOffset": 912, "target": 34962}, {"buffer": 0, "byteLength": 192, "byteOffset": 1104, "target": 34962}, {"buffer": 0, "byteLength": 128, "byteOffset": 1296, "target": 34962}, {"buffer": 0, "byteLength": 96, "byteOffset": 1424, "target": 34963}, {"buffer": 0, "byteLength": 228, "byteOffset": 1520, "target": 34962}, {"buffer": 0, "byteLength": 228, "byteOffset": 1748, "target": 34962}, {"buffer": 0, "byteLength": 152, "byteOffset": 1976, "target": 34962}, {"buffer": 0, "byteLength": 120, "byteOffset": 2128, "target": 34963}, {"buffer": 0, "byteLength": 228, "byteOffset": 2248, "target": 34962}, {"buffer": 0, "byteLength": 228, "byteOffset": 2476, "target": 34962}, {"buffer": 0, "byteLength": 152, "byteOffset": 2704, "target": 34962}, {"buffer": 0, "byteLength": 192, "byteOffset": 2856, "target": 34962}, {"buffer": 0, "byteLength": 192, "byteOffset": 3048, "target": 34962}, {"buffer": 0, "byteLength": 128, "byteOffset": 3240, "target": 34962}, {"buffer": 0, "byteLength": 192, "byteOffset": 3368, "target": 34962}, {"buffer": 0, "byteLength": 192, "byteOffset": 3560, "target": 34962}, {"buffer": 0, "byteLength": 128, "byteOffset": 3752, "target": 34962}, {"buffer": 0, "byteLength": 288, "byteOffset": 3880, "target": 34962}, {"buffer": 0, "byteLength": 288, "byteOffset": 4168, "target": 34962}, {"buffer": 0, "byteLength": 192, "byteOffset": 4456, "target": 34962}, {"buffer": 0, "byteLength": 144, "byteOffset": 4648, "target": 34963}, {"buffer": 0, "byteLength": 84, "byteOffset": 4792, "target": 34962}, {"buffer": 0, "byteLength": 84, "byteOffset": 4876, "target": 34962}, {"buffer": 0, "byteLength": 56, "byteOffset": 4960, "target": 34962}, {"buffer": 0, "byteLength": 36, "byteOffset": 5016, "target": 34963}, {"buffer": 0, "byteLength": 84, "byteOffset": 5052, "target": 34962}, {"buffer": 0, "byteLength": 84, "byteOffset": 5136, "target": 34962}, {"buffer": 0, "byteLength": 56, "byteOffset": 5220, "target": 34962}, {"buffer": 0, "byteLength": 96, "byteOffset": 5276, "target": 34962}, {"buffer": 0, "byteLength": 96, "byteOffset": 5372, "target": 34962}, {"buffer": 0, "byteLength": 64, "byteOffset": 5468, "target": 34962}, {"buffer": 0, "byteLength": 48, "byteOffset": 5532, "target": 34963}, {"buffer": 0, "byteLength": 288, "byteOffset": 5580, "target": 34962}, {"buffer": 0, "byteLength": 288, "byteOffset": 5868, "target": 34962}, {"buffer": 0, "byteLength": 192, "byteOffset": 6156, "target": 34962}, {"buffer": 0, "byteLength": 144, "byteOffset": 6348, "target": 34963}, {"buffer": 0, "byteLength": 288, "byteOffset": 6492, "target": 34962}, {"buffer": 0, "byteLength": 288, "byteOffset": 6780, "target": 34962}, {"buffer": 0, "byteLength": 192, "byteOffset": 7068, "target": 34962}], "samplers": [{"magFilter": 9729, "minFilter": 9987}], "buffers": [{"byteLength": 7260, "uri": "moss_01.bin"}]}